<mxfile host="app.diagrams.net" modified="2022-02-25T06:26:56.713Z" agent="5.0 (Windows NT 10.0; Win64; x64) AppleWebKit/537.36 (KHTML, like Gecko) Chrome/98.0.4758.102 Safari/537.36" etag="ioZvscnavoJy5NL20Ysk" version="16.5.6" type="github">
  <diagram id="ECkrB1jMdO-9J8o60q_2" name="第 1 页">
    <mxGraphModel dx="1422" dy="762" grid="1" gridSize="10" guides="1" tooltips="1" connect="1" arrows="1" fold="1" page="1" pageScale="1" pageWidth="827" pageHeight="1169" math="0" shadow="0">
      <root>
        <mxCell id="0" />
        <mxCell id="1" parent="0" />
        <mxCell id="h-Xt1tI1-LUMdmjLfkKE-1" value="&lt;div&gt;&lt;br&gt;&lt;/div&gt;" style="rounded=0;whiteSpace=wrap;html=1;fontColor=#FF3333;align=left;fillColor=#FFCC99;" parent="1" vertex="1">
          <mxGeometry x="80" y="180" width="720" height="845" as="geometry" />
        </mxCell>
        <mxCell id="h-Xt1tI1-LUMdmjLfkKE-2" value="&lt;font style=&quot;font-size: 24px&quot;&gt;二类户&lt;/font&gt;" style="rounded=0;whiteSpace=wrap;html=1;fontColor=#FF3333;align=left;fillColor=#66B2FF;" parent="1" vertex="1">
          <mxGeometry x="110" y="210" width="390" height="760" as="geometry" />
        </mxCell>
        <mxCell id="h-Xt1tI1-LUMdmjLfkKE-3" value="&lt;font style=&quot;font-size: 24px&quot;&gt;发佣&amp;nbsp; &amp;nbsp;&amp;nbsp;&lt;/font&gt;" style="rounded=0;whiteSpace=wrap;html=1;fillColor=#66FFFF;align=right;fontColor=#FF3333;" parent="1" vertex="1">
          <mxGeometry x="520" y="440" width="250" height="250" as="geometry" />
        </mxCell>
        <mxCell id="h-Xt1tI1-LUMdmjLfkKE-4" value="" style="edgeStyle=orthogonalEdgeStyle;rounded=0;orthogonalLoop=1;jettySize=auto;html=1;entryX=0.5;entryY=0;entryDx=0;entryDy=0;" parent="1" source="h-Xt1tI1-LUMdmjLfkKE-5" edge="1" target="PTR1udxUZSkDVxZLzC3a-2">
          <mxGeometry relative="1" as="geometry">
            <mxPoint x="340" y="370" as="targetPoint" />
          </mxGeometry>
        </mxCell>
        <mxCell id="h-Xt1tI1-LUMdmjLfkKE-5" value="身份证上传" style="rounded=0;whiteSpace=wrap;html=1;" parent="1" vertex="1">
          <mxGeometry x="293.75" y="240" width="90" height="50" as="geometry" />
        </mxCell>
        <mxCell id="h-Xt1tI1-LUMdmjLfkKE-6" value="" style="edgeStyle=orthogonalEdgeStyle;rounded=0;orthogonalLoop=1;jettySize=auto;html=1;" parent="1" source="h-Xt1tI1-LUMdmjLfkKE-8" target="h-Xt1tI1-LUMdmjLfkKE-10" edge="1">
          <mxGeometry relative="1" as="geometry" />
        </mxCell>
        <mxCell id="h-Xt1tI1-LUMdmjLfkKE-7" style="edgeStyle=orthogonalEdgeStyle;rounded=0;orthogonalLoop=1;jettySize=auto;html=1;" parent="1" source="h-Xt1tI1-LUMdmjLfkKE-8" edge="1" target="h-Xt1tI1-LUMdmjLfkKE-19">
          <mxGeometry relative="1" as="geometry">
            <mxPoint x="480" y="515" as="targetPoint" />
          </mxGeometry>
        </mxCell>
        <mxCell id="h-Xt1tI1-LUMdmjLfkKE-8" value="账号注册（开通二类户）" style="whiteSpace=wrap;html=1;rounded=0;" parent="1" vertex="1">
          <mxGeometry x="280" y="490" width="120" height="50" as="geometry" />
        </mxCell>
        <mxCell id="h-Xt1tI1-LUMdmjLfkKE-9" value="" style="edgeStyle=orthogonalEdgeStyle;rounded=0;orthogonalLoop=1;jettySize=auto;html=1;" parent="1" source="h-Xt1tI1-LUMdmjLfkKE-10" target="h-Xt1tI1-LUMdmjLfkKE-12" edge="1">
          <mxGeometry relative="1" as="geometry" />
        </mxCell>
        <mxCell id="h-Xt1tI1-LUMdmjLfkKE-10" value="余额查询" style="whiteSpace=wrap;html=1;rounded=0;" parent="1" vertex="1">
          <mxGeometry x="280" y="600" width="120" height="60" as="geometry" />
        </mxCell>
        <mxCell id="h-Xt1tI1-LUMdmjLfkKE-11" value="" style="edgeStyle=orthogonalEdgeStyle;rounded=0;orthogonalLoop=1;jettySize=auto;html=1;" parent="1" source="h-Xt1tI1-LUMdmjLfkKE-12" target="h-Xt1tI1-LUMdmjLfkKE-17" edge="1">
          <mxGeometry relative="1" as="geometry" />
        </mxCell>
        <mxCell id="h-Xt1tI1-LUMdmjLfkKE-12" value="提现" style="whiteSpace=wrap;html=1;rounded=0;" parent="1" vertex="1">
          <mxGeometry x="280" y="730" width="120" height="60" as="geometry" />
        </mxCell>
        <mxCell id="h-Xt1tI1-LUMdmjLfkKE-13" value="是" style="edgeStyle=orthogonalEdgeStyle;rounded=0;orthogonalLoop=1;jettySize=auto;html=1;" parent="1" source="h-Xt1tI1-LUMdmjLfkKE-16" target="h-Xt1tI1-LUMdmjLfkKE-8" edge="1">
          <mxGeometry relative="1" as="geometry">
            <Array as="points">
              <mxPoint x="340" y="450" />
              <mxPoint x="340" y="450" />
            </Array>
          </mxGeometry>
        </mxCell>
        <mxCell id="h-Xt1tI1-LUMdmjLfkKE-14" style="edgeStyle=orthogonalEdgeStyle;rounded=0;orthogonalLoop=1;jettySize=auto;html=1;exitX=0;exitY=0.5;exitDx=0;exitDy=0;entryX=0;entryY=0.5;entryDx=0;entryDy=0;" parent="1" source="h-Xt1tI1-LUMdmjLfkKE-16" target="h-Xt1tI1-LUMdmjLfkKE-17" edge="1">
          <mxGeometry relative="1" as="geometry">
            <Array as="points">
              <mxPoint x="200" y="425" />
              <mxPoint x="200" y="870" />
            </Array>
          </mxGeometry>
        </mxCell>
        <mxCell id="h-Xt1tI1-LUMdmjLfkKE-15" value="否" style="edgeLabel;html=1;align=center;verticalAlign=middle;resizable=0;points=[];" parent="h-Xt1tI1-LUMdmjLfkKE-14" vertex="1" connectable="0">
          <mxGeometry x="-0.1257" y="1" relative="1" as="geometry">
            <mxPoint as="offset" />
          </mxGeometry>
        </mxCell>
        <mxCell id="h-Xt1tI1-LUMdmjLfkKE-16" value="新户" style="rhombus;whiteSpace=wrap;html=1;" parent="1" vertex="1">
          <mxGeometry x="295" y="400" width="90" height="50" as="geometry" />
        </mxCell>
        <mxCell id="h-Xt1tI1-LUMdmjLfkKE-17" value="结束" style="rounded=1;whiteSpace=wrap;html=1;" parent="1" vertex="1">
          <mxGeometry x="280" y="840" width="120" height="60" as="geometry" />
        </mxCell>
        <mxCell id="h-Xt1tI1-LUMdmjLfkKE-18" value="" style="edgeStyle=orthogonalEdgeStyle;rounded=0;orthogonalLoop=1;jettySize=auto;html=1;" parent="1" source="h-Xt1tI1-LUMdmjLfkKE-19" target="h-Xt1tI1-LUMdmjLfkKE-20" edge="1">
          <mxGeometry relative="1" as="geometry" />
        </mxCell>
        <mxCell id="h-Xt1tI1-LUMdmjLfkKE-19" value="签约" style="rounded=0;whiteSpace=wrap;html=1;" parent="1" vertex="1">
          <mxGeometry x="585" y="485" width="120" height="60" as="geometry" />
        </mxCell>
        <mxCell id="h-Xt1tI1-LUMdmjLfkKE-20" value="发佣" style="whiteSpace=wrap;html=1;rounded=0;" parent="1" vertex="1">
          <mxGeometry x="585" y="600" width="120" height="60" as="geometry" />
        </mxCell>
        <mxCell id="h-Xt1tI1-LUMdmjLfkKE-21" value="&lt;font style=&quot;font-size: 36px&quot;&gt;平安二类户&lt;/font&gt;" style="text;html=1;strokeColor=none;fillColor=none;align=center;verticalAlign=middle;whiteSpace=wrap;rounded=0;fontColor=#FF3333;" parent="1" vertex="1">
          <mxGeometry x="545" y="230" width="200" height="60" as="geometry" />
        </mxCell>
        <mxCell id="PTR1udxUZSkDVxZLzC3a-5" style="edgeStyle=orthogonalEdgeStyle;rounded=0;orthogonalLoop=1;jettySize=auto;html=1;exitX=1;exitY=0.5;exitDx=0;exitDy=0;entryX=0.5;entryY=0;entryDx=0;entryDy=0;" edge="1" parent="1" source="PTR1udxUZSkDVxZLzC3a-2" target="PTR1udxUZSkDVxZLzC3a-4">
          <mxGeometry relative="1" as="geometry" />
        </mxCell>
        <mxCell id="PTR1udxUZSkDVxZLzC3a-7" value="是" style="edgeLabel;html=1;align=center;verticalAlign=middle;resizable=0;points=[];" vertex="1" connectable="0" parent="PTR1udxUZSkDVxZLzC3a-5">
          <mxGeometry x="-0.2966" relative="1" as="geometry">
            <mxPoint as="offset" />
          </mxGeometry>
        </mxCell>
        <mxCell id="PTR1udxUZSkDVxZLzC3a-8" value="否" style="edgeStyle=orthogonalEdgeStyle;rounded=0;orthogonalLoop=1;jettySize=auto;html=1;exitX=0.5;exitY=1;exitDx=0;exitDy=0;" edge="1" parent="1" source="PTR1udxUZSkDVxZLzC3a-2" target="h-Xt1tI1-LUMdmjLfkKE-16">
          <mxGeometry relative="1" as="geometry" />
        </mxCell>
        <mxCell id="PTR1udxUZSkDVxZLzC3a-2" value="已上传" style="rhombus;whiteSpace=wrap;html=1;" vertex="1" parent="1">
          <mxGeometry x="292.5" y="330" width="92.5" height="40" as="geometry" />
        </mxCell>
        <mxCell id="PTR1udxUZSkDVxZLzC3a-6" style="edgeStyle=orthogonalEdgeStyle;rounded=0;orthogonalLoop=1;jettySize=auto;html=1;exitX=0.5;exitY=1;exitDx=0;exitDy=0;entryX=1;entryY=0.5;entryDx=0;entryDy=0;" edge="1" parent="1" source="PTR1udxUZSkDVxZLzC3a-4" target="h-Xt1tI1-LUMdmjLfkKE-10">
          <mxGeometry relative="1" as="geometry" />
        </mxCell>
        <mxCell id="PTR1udxUZSkDVxZLzC3a-4" value="登录" style="rounded=0;whiteSpace=wrap;html=1;" vertex="1" parent="1">
          <mxGeometry x="415" y="410" width="60" height="30" as="geometry" />
        </mxCell>
      </root>
    </mxGraphModel>
  </diagram>
</mxfile>
